<?xml version="1.0" standalone="no"?>
<!DOCTYPE svg PUBLIC "-//W3C//DTD SVG 20010904//EN"
 "http://www.w3.org/TR/2001/REC-SVG-20010904/DTD/svg10.dtd">
<svg version="1.0" xmlns="http://www.w3.org/2000/svg"
 width="1024.000000pt" height="1024.000000pt" viewBox="0 0 1024.000000 1024.000000"
 preserveAspectRatio="xMidYMid meet">
<metadata>
Created by potrace 1.16, written by Peter Selinger 2001-2019
</metadata>
<g transform="translate(0.000000,1024.000000) scale(0.100000,-0.100000)"
fill="#000000" stroke="none">
<path d="M0 5120 l0 -5120 5120 0 5120 0 0 5120 0 5120 -5120 0 -5120 0 0
-5120z m7865 4258 c36 -7 65 -16 65 -19 0 -4 14 -11 32 -14 17 -4 54 -20 82
-36 28 -16 75 -41 104 -56 28 -14 52 -30 52 -35 0 -4 5 -8 11 -8 15 0 63 -39
171 -140 225 -211 361 -450 416 -734 16 -85 17 -271 17 -2956 l0 -2865 -23
-110 c-29 -143 -54 -220 -99 -310 -83 -167 -259 -370 -420 -486 -99 -72 -247
-147 -358 -182 -195 -61 -46 -58 -3110 -55 l-2790 4 -85 21 c-340 86 -572 230
-780 484 -49 60 -90 117 -90 125 0 8 -4 14 -9 14 -5 0 -11 8 -15 18 -3 9 -17
35 -30 57 -14 22 -25 48 -26 58 0 9 -4 17 -10 17 -5 0 -12 16 -16 35 -3 19
-10 35 -14 35 -5 0 -11 22 -15 50 -4 27 -11 52 -16 56 -5 3 -9 18 -9 34 0 16
-4 32 -10 35 -13 8 -14 5915 -1 5915 5 0 12 25 16 55 3 30 11 55 16 55 5 0 9
11 9 25 0 14 5 25 11 25 7 0 10 12 7 30 -3 17 -1 30 4 30 4 0 8 6 8 14 0 8 6
17 13 20 10 5 9 7 0 12 -7 3 -13 10 -13 15 0 6 5 7 10 4 6 -4 13 7 16 24 4 17
10 31 14 31 5 0 11 13 15 29 3 16 13 32 21 35 8 3 14 10 14 16 0 6 11 22 25
36 14 14 25 34 25 44 0 11 7 20 15 20 8 0 15 5 15 11 0 6 29 40 65 75 36 36
65 69 65 74 0 6 5 10 11 10 15 0 49 39 49 57 0 7 3 12 8 11 17 -3 50 19 93 63
43 43 82 66 102 61 11 -3 38 25 35 35 -2 4 8 9 22 11 30 3 100 34 100 44 0 3
15 10 33 13 17 4 41 14 52 21 11 8 30 14 42 14 13 0 23 4 23 9 0 4 28 13 63
18 98 16 5889 17 5972 1z"/>
<path d="M3091 8009 c-180 -21 -329 -83 -468 -194 -162 -130 -257 -281 -310
-495 -17 -72 -18 -160 -18 -1950 l0 -1875 27 -97 c48 -170 123 -296 253 -423
144 -141 320 -225 514 -246 63 -6 693 -9 1831 -7 1614 3 1740 5 1800 21 240
65 440 203 565 391 61 93 95 169 127 287 l23 84 0 1865 c0 1765 -1 1869 -18
1942 -38 163 -104 290 -211 405 -151 163 -337 264 -541 293 -87 12 -3467 11
-3574 -1z m3138 -1163 c98 -33 189 -107 233 -190 92 -178 68 -453 -53 -590
-32 -37 -228 -185 -364 -276 -44 -29 -136 -92 -205 -140 -196 -136 -861 -591
-1114 -761 -271 -182 -296 -203 -296 -250 0 -38 20 -72 53 -91 17 -10 223 -14
912 -18 l890 -5 57 -28 c159 -78 214 -263 128 -425 -39 -73 -83 -115 -160
-151 l-55 -26 -1324 -3 c-876 -2 -1342 1 -1379 8 -123 22 -228 106 -285 227
-27 58 -32 82 -35 163 -9 221 66 353 287 502 58 39 183 126 276 192 94 67 222
157 285 200 63 42 208 141 322 219 327 225 409 281 643 440 345 235 376 264
346 321 -29 53 17 51 -1006 56 l-950 5 -42 23 c-107 57 -155 133 -161 252 -5
95 23 174 82 238 78 84 140 112 276 122 52 4 655 7 1340 6 1171 -2 1248 -3
1299 -20z"/>
</g>
</svg>
